<?xml version="1.0" encoding="utf-8"?>
<!-- Generator: Adobe Illustrator 18.1.1, SVG Export Plug-In . SVG Version: 6.00 Build 0)  -->
<svg version="1.1" id="Layer_1" xmlns="http://www.w3.org/2000/svg" xmlns:xlink="http://www.w3.org/1999/xlink" x="0px" y="0px"
	 viewBox="0 0 1024 1024" enable-background="new 0 0 1024 1024" xml:space="preserve">
<g id="Layer_2">
	<g>
		<g>
			<path fill="#FFFFFF" d="M512,110.8c-221.6,0-401.2,179.6-401.2,401.2S290.4,913.2,512,913.2S913.2,733.6,913.2,512
				S733.6,110.8,512,110.8z M512,886.3c-206.7,0-374.3-167.6-374.3-374.3S305.3,137.7,512,137.7S886.3,305.3,886.3,512
				S718.7,886.3,512,886.3z"/>
		</g>
	</g>
</g>
<g id="Layer_1_1_">
	<g>
		<path fill="#FFFFFF" d="M538.4,561.8c6.2-3.7,17.4,5.9,21.1,12.1l21.1,25.9c16.7-14.2,28.4-33.4,32.8-55.7l16.7,1.2
			c3.7,34.6,32.8,62.5,68.6,62.5c38.8,0,70-31.7,69.2-70.7c-0.8-38.5-33.3-69.1-71.7-67.8c-31,1.1-56.5,22.4-64.3,50.7l-16.7-1.2
			c-3.1-47-39-85.3-85.3-90.9V350c35.4-5.7,62.4-37.3,61.2-74.9c-1.3-38.5-32.7-69.5-71.2-70.4c-41-1-74.7,32.2-74.7,73
			c0,35.9,25.4,65.6,59.4,71.7v77.9c-47.6,6.8-84.7,47.6-84.7,97.1c0,3.1,0,6.2,0.6,9.3l-66.8,14.8c-2.5-4.9-5.6-9.3-9.3-13.6
			c-13-14.2-30.9-22.9-50.7-23.5c-41.4-1.9-74.8,29.1-76.7,69.9c-0.6,19.8,5.6,38.3,19.2,52.6c13,14.2,30.9,22.9,50.7,23.5
			c1.2,0,2.5,0,3.1,0c39,0,71.1-30.9,73-69.9c0-4.9,0-9.9-0.6-14.8l63.7-14.2c14.2,37.1,49.5,63.7,91.5,63.7
			c11.7,0,22.9-2.5,33.4-6.2l27.8,47c-19.2,16.7-30.3,41.4-28.4,68c3.1,44.5,39.6,78.5,82.9,78.5c1.9,0,3.7,0,5.6,0
			c45.8-3.1,81-42.7,77.9-88.4c-3.1-45.8-42.7-81-88.4-77.9c-8.7,0.6-8.7-0.6-16.7,2.5l-55.7-86c-3.1-5.6-14.2-5.6-19.8-3.1
			C537.3,554.6,536.5,563,538.4,561.8z M290.6,630h-2.5c-12.4-0.6-24.1-6.2-32.8-15.5s-13-21.6-12.4-34c1.2-25.4,21.6-45.1,47-45.1
			h2.5c12.4,0.6,24.1,6.2,32.8,15.5c8.7,9.3,13,21.6,12.4,34C336.9,610.2,315.9,630,290.6,630z M630.7,667.1c1.2,0,2.5,0,3.7,0
			c30.3,0,55.7,23.5,57.5,53.8c1.9,31.5-22.3,58.7-53.8,61.2c-31.5,1.9-58.7-22.3-61.2-53.8C575,696.1,599.2,668.9,630.7,667.1z
			 M471.8,276.2c0-26,21-47.6,47.6-47.6c26,0,47.6,21,47.6,47.6s-21,47.6-47.6,47.6C492.8,323.2,471.8,302.2,471.8,276.2z
			 M748.5,539c0,27.2-22,49.2-49.2,49.2s-49.2-22-49.2-49.2s22-49.2,49.2-49.2S748.5,511.8,748.5,539z"/>
	</g>
</g>
</svg>
